<svg width="237.68500976562498px" height="121.40498046875px" xmlns="http://www.w3.org/2000/svg" viewBox="131.15749511718752 14.297509765625001 237.68500976562498 121.40498046875" style="background: rgba(255, 182, 187, 0);" preserveAspectRatio="xMidYMid"><defs><filter id="editing-hover" x="-100%" y="-100%" width="300%" height="300%"><feFlood flood-color="#45d5c3" result="flood"></feFlood><feComposite operator="in" in2="SourceAlpha" in="flood" result="shadow"></feComposite><feOffset dx="-1.3" dy="-1.9" in="SourceGraphic" result="offset-1"></feOffset><feOffset dx="1.3" dy="1.9" in="shadow" result="offset-2"></feOffset><feMerge><feMergeNode in="offset-2"></feMergeNode><feMergeNode in="offset-1"></feMergeNode></feMerge></filter></defs><g filter="url(#editing-hover)"><g transform="translate(172.6562476158142, 104.76000022888184)"><path d="M30.91-4.38L30.91-4.38L30.91-4.38Q28.22-1.66 24.54-0.19L24.54-0.19L24.54-0.19Q20.86 1.28 17.22 1.28L17.22 1.28L17.22 1.28Q13.57 1.28 12.29 0.64L12.29 0.64L10.30 11.52L-2.69 12.80L6.14-32.64L16.58-33.73L15.74-29.31L15.74-29.31Q18.43-33.86 24-33.86L24-33.86L24-33.86Q30.27-33.86 33.60-29.82L33.60-29.82L33.60-29.82Q36.54-26.18 36.54-20.61L36.54-20.61L36.54-20.61Q36.54-15.04 35.07-11.07L35.07-11.07L35.07-11.07Q33.60-7.10 30.91-4.38ZM16.45-22.34L13.06-3.58L13.06-3.58Q14.40-2.43 16.06-2.43L16.06-2.43L16.06-2.43Q17.73-2.43 18.69-3.07L18.69-3.07L18.69-3.07Q19.65-3.71 20.35-4.99L20.35-4.99L20.35-4.99Q22.27-8.45 23.81-18.94L23.81-18.94L23.81-18.94Q24.26-22.02 24.26-25.02L24.26-25.02L24.26-25.02Q24.26-28.03 23.58-28.99L23.58-28.99L23.58-28.99Q22.91-29.95 21.63-29.95L21.63-29.95L21.63-29.95Q17.73-29.95 16.45-22.34L16.45-22.34ZM55.74-3.52L55.74-3.52L55.74-3.52Q53.76 1.28 47.42 1.28L47.42 1.28L47.42 1.28Q44.16 1.28 42.11-0.96L42.11-0.96L42.11-0.96Q40.38-2.94 40.38-4.93L40.38-4.93L40.38-4.93Q40.38-10.11 42.75-20.22L42.75-20.22L45.12-32.64L58.11-33.92L54.21-13.70L54.21-13.70Q53.12-8.96 53.12-7.30L53.12-7.30L53.12-7.30Q53.12-3.65 55.74-3.52ZM46.27-41.54L46.27-41.54L46.27-41.54Q46.27-44.03 48.35-45.38L48.35-45.38L48.35-45.38Q50.43-46.72 53.44-46.72L53.44-46.72L53.44-46.72Q56.45-46.72 58.27-45.38L58.27-45.38L58.27-45.38Q60.10-44.03 60.10-41.54L60.10-41.54L60.10-41.54Q60.10-39.04 58.08-37.76L58.08-37.76L58.08-37.76Q56.06-36.48 53.06-36.48L53.06-36.48L53.06-36.48Q50.05-36.48 48.16-37.76L48.16-37.76L48.16-37.76Q46.27-39.04 46.27-41.54ZM77.70-30.34L77.70-30.34L77.70-30.34Q81.15-33.92 88.45-33.92L88.45-33.92L88.45-33.92Q92.48-33.92 94.69-31.78L94.69-31.78L94.69-31.78Q96.90-29.63 96.90-25.70L96.90-25.70L96.90-25.70Q96.90-21.76 94.69-18.98L94.69-18.98L94.69-18.98Q92.48-16.19 88.38-15.04L88.38-15.04L88.38-15.04Q88.70-13.76 89.15-12.42L89.15-12.42L90.05-9.86L90.05-9.86Q91.26-6.59 92.22-5.44L92.22-5.44L92.22-5.44Q93.18-4.29 94.46-3.90L94.46-3.90L94.46-3.90Q93.76-1.28 91.20 0.13L91.20 0.13L91.20 0.13Q89.15 1.28 86.34 1.28L86.34 1.28L86.34 1.28Q78.08 1.28 76.99-11.46L76.99-11.46L76.99-11.46Q76.80-13.25 76.80-15.04L76.80-15.04L76.80-15.04Q80-15.94 82.24-18.94L82.24-18.94L82.24-18.94Q84.48-21.95 84.48-25.47L84.48-25.47L84.48-25.47Q84.48-28.99 81.98-28.99L81.98-28.99L81.98-28.99Q80.19-28.99 78.78-27.01L78.78-27.01L78.78-27.01Q77.38-25.02 76.74-21.63L76.74-21.63L72.51 0L59.58 1.28L68.54-44.80L81.41-46.08L79.94-38.46L79.94-38.46Q78.98-33.09 77.70-30.34ZM115.20-3.52L115.20-3.52L115.20-3.52Q113.22 1.28 106.88 1.28L106.88 1.28L106.88 1.28Q103.62 1.28 101.57-0.96L101.57-0.96L101.57-0.96Q99.84-2.94 99.84-4.93L99.84-4.93L99.84-4.93Q99.84-10.11 102.21-20.22L102.21-20.22L104.58-32.64L117.57-33.92L113.66-13.70L113.66-13.70Q112.58-8.96 112.58-7.30L112.58-7.30L112.58-7.30Q112.58-3.65 115.20-3.52ZM105.73-41.54L105.73-41.54L105.73-41.54Q105.73-44.03 107.81-45.38L107.81-45.38L107.81-45.38Q109.89-46.72 112.90-46.72L112.90-46.72L112.90-46.72Q115.90-46.72 117.73-45.38L117.73-45.38L117.73-45.38Q119.55-44.03 119.55-41.54L119.55-41.54L119.55-41.54Q119.55-39.04 117.54-37.76L117.54-37.76L117.54-37.76Q115.52-36.48 112.51-36.48L112.51-36.48L112.51-36.48Q109.50-36.48 107.62-37.76L107.62-37.76L107.62-37.76Q105.73-39.04 105.73-41.54ZM134.59 1.28L134.59 1.28L134.59 1.28Q120.51 1.28 120.51-11.97L120.51-11.97L120.51-11.97Q120.51-21.38 125.70-27.46L125.70-27.46L125.70-27.46Q131.20-33.92 140.74-33.92L140.74-33.92L140.74-33.92Q147.65-33.92 151.17-30.72L151.17-30.72L151.17-30.72Q154.69-27.52 154.69-20.80L154.69-20.80L154.69-20.80Q154.69-10.56 149.18-4.61L149.18-4.61L149.18-4.61Q143.81 1.28 134.59 1.28ZM136.26-26.56L136.26-26.56L136.26-26.56Q135.49-24.83 134.88-22.24L134.88-22.24L134.88-22.24Q134.27-19.65 133.50-15.55L133.50-15.55L133.50-15.55Q132.74-11.46 132.74-6.40L132.74-6.40L132.74-6.40Q132.74-4.74 133.28-3.65L133.28-3.65L133.28-3.65Q133.82-2.56 135.30-2.56L135.30-2.56L135.30-2.56Q136.77-2.56 137.70-3.26L137.70-3.26L137.70-3.26Q138.62-3.97 139.33-5.63L139.33-5.63L139.33-5.63Q140.61-8.58 141.63-14.05L141.63-14.05L141.63-14.05Q142.66-19.52 142.75-21.89L142.75-21.89L142.75-21.89Q142.85-24.26 142.85-26.02L142.85-26.02L142.85-26.02Q142.85-27.78 142.34-28.93L142.34-28.93L142.34-28.93Q141.82-30.08 140.38-30.08L140.38-30.08L140.38-30.08Q138.94-30.08 137.98-29.18L137.98-29.18L137.98-29.18Q137.02-28.29 136.26-26.56Z" fill="#1d94d0"></path></g></g><style>text {
  font-size: 64px;
  font-family: Arial Black;
  dominant-baseline: central;
  text-anchor: middle;
}</style></svg>